<svg width="24" height="24" viewBox="0 0 24 24" fill="none" xmlns="http://www.w3.org/2000/svg">
<rect width="24" height="24" rx="12" fill="#F1F6FF"/>
<g clip-path="url(#clip0_401_4)">
<path opacity="0.803" fill-rule="evenodd" clip-rule="evenodd" d="M19 12.937C19.5305 12.937 20.0392 13.1477 20.4142 13.5228C20.7893 13.8979 21 14.4066 21 14.937V18.487C21 19.0174 20.7893 19.5262 20.4142 19.9012C20.0392 20.2763 19.5305 20.487 19 20.487H7.72202C7.22628 20.487 6.7354 20.3894 6.27739 20.1997C5.81939 20.0099 5.40323 19.7319 5.05269 19.3813C4.70215 19.0308 4.42409 18.6146 4.23438 18.1566C4.04466 17.6986 3.94702 17.2078 3.94702 16.712C3.94702 16.2163 4.04466 15.7254 4.23438 15.2674C4.42409 14.8094 4.70215 14.3932 5.05269 14.0427C5.40323 13.6921 5.81939 13.4141 6.27739 13.2244C6.7354 13.0347 7.22628 12.937 7.72202 12.937H19ZM6.79002 14.825C6.54169 14.8245 6.29569 14.8729 6.06606 14.9674C5.83643 15.062 5.62768 15.2008 5.45171 15.376C5.27574 15.5513 5.13601 15.7594 5.0405 15.9887C4.94498 16.2179 4.89555 16.4637 4.89502 16.712C4.89528 16.9604 4.9445 17.2063 5.03985 17.4356C5.13519 17.6649 5.27481 17.8732 5.45071 18.0486C5.62661 18.2239 5.83535 18.3629 6.06498 18.4575C6.29462 18.5521 6.54065 18.6005 6.78902 18.6C7.03744 18.6005 7.28352 18.5521 7.51321 18.4575C7.7429 18.3629 7.95171 18.224 8.12769 18.0486C8.30367 17.8733 8.44338 17.665 8.53883 17.4357C8.63429 17.2063 8.68363 16.9604 8.68402 16.712C8.6835 16.4637 8.63406 16.2179 8.53855 15.9887C8.44303 15.7594 8.3033 15.5513 8.12733 15.376C7.95137 15.2008 7.74261 15.062 7.51298 14.9674C7.28335 14.8729 7.03835 14.8245 6.79002 14.825Z" fill="#1A47FF"/>
<path opacity="0.803" fill-rule="evenodd" clip-rule="evenodd" d="M14.9539 6.12021L17.4789 8.63521C17.8545 9.0096 18.0661 9.51785 18.067 10.0482C18.068 10.5785 17.8582 11.0875 17.4839 11.4632L17.4789 11.4692L9.52294 19.3942C8.81126 20.1033 7.84757 20.5015 6.84294 20.5015C5.8383 20.5015 4.87461 20.1033 4.16294 19.3942C3.81166 19.0441 3.53294 18.6282 3.34276 18.1702C3.15258 17.7122 3.05469 17.2211 3.05469 16.7252C3.05469 16.2293 3.15258 15.7382 3.34276 15.2802C3.53294 14.8222 3.81166 14.4063 4.16294 14.0562L12.1309 6.11921C12.5058 5.7458 13.0133 5.53613 13.5424 5.53613C14.0715 5.53613 14.5791 5.7468 14.9539 6.12021ZM6.78894 14.8252C6.28759 14.8244 5.80644 15.0227 5.45127 15.3766C5.09611 15.7304 4.896 16.2109 4.89494 16.7122C4.8952 16.9606 4.94441 17.2065 5.03976 17.4358C5.13511 17.6651 5.27473 17.8734 5.45063 18.0488C5.62653 18.2241 5.83526 18.3631 6.0649 18.4577C6.29454 18.5523 6.54057 18.6007 6.78894 18.6002C7.03735 18.6007 7.28344 18.5523 7.51313 18.4577C7.74282 18.3631 7.95162 18.2242 8.1276 18.0488C8.30358 17.8735 8.44329 17.6652 8.53875 17.4359C8.63421 17.2065 8.68355 16.9606 8.68394 16.7122C8.68341 16.4639 8.63398 16.2181 8.53847 15.9889C8.44295 15.7596 8.30322 15.5515 8.12725 15.3762C7.95128 15.201 7.74253 15.0622 7.5129 14.9676C7.28327 14.8731 7.03727 14.8247 6.78894 14.8252Z" fill="#1A47FF"/>
<path fill-rule="evenodd" clip-rule="evenodd" d="M8.57901 3.5C9.10945 3.5 9.61815 3.71071 9.99323 4.08579C10.3683 4.46086 10.579 4.96957 10.579 5.5V16.698C10.5872 17.2008 10.4952 17.7002 10.3084 18.1672C10.1217 18.6341 9.84382 19.0592 9.49112 19.4176C9.13843 19.7761 8.71791 20.0608 8.25409 20.2551C7.79026 20.4495 7.2924 20.5496 6.78951 20.5496C6.28662 20.5496 5.78876 20.4495 5.32493 20.2551C4.86111 20.0608 4.4406 19.7761 4.0879 19.4176C3.7352 19.0592 3.45737 18.6341 3.2706 18.1672C3.08383 17.7002 2.99184 17.2008 3.00001 16.698V5.5C3.00001 4.96957 3.21073 4.46086 3.5858 4.08579C3.96087 3.71071 4.46958 3.5 5.00001 3.5H8.57901ZM6.78901 14.825C6.28766 14.8242 5.80651 15.0225 5.45135 15.3764C5.09618 15.7302 4.89607 16.2106 4.89501 16.712C4.89527 16.9604 4.94449 17.2062 5.03984 17.4356C5.13518 17.6649 5.2748 17.8732 5.4507 18.0486C5.6266 18.2239 5.83534 18.3629 6.06497 18.4575C6.29461 18.5521 6.54065 18.6005 6.78901 18.6C7.03743 18.6005 7.28351 18.5521 7.5132 18.4575C7.7429 18.3629 7.9517 18.2239 8.12768 18.0486C8.30366 17.8733 8.44337 17.665 8.53883 17.4357C8.63428 17.2063 8.68362 16.9604 8.68401 16.712C8.68349 16.4637 8.63406 16.2179 8.53854 15.9886C8.44302 15.7594 8.30329 15.5513 8.12732 15.376C7.95136 15.2008 7.7426 15.062 7.51297 14.9674C7.28334 14.8729 7.03734 14.8245 6.78901 14.825Z" fill="#1F2024"/>
</g>
<defs>
<clipPath id="clip0_401_4">
<rect width="18" height="18" fill="white" transform="translate(3 3)"/>
</clipPath>
</defs>
</svg>
