<svg width="18" height="18" viewBox="0 0 18 18" fill="none" xmlns="http://www.w3.org/2000/svg">
<g clip-path="url(#clip0_7_800)">
<path opacity="0.803" fill-rule="evenodd" clip-rule="evenodd" d="M15.9998 9.93701C16.5302 9.93701 17.0389 10.1477 17.414 10.5228C17.7891 10.8979 17.9998 11.4066 17.9998 11.937V15.487C17.9998 16.0174 17.7891 16.5262 17.414 16.9012C17.0389 17.2763 16.5302 17.487 15.9998 17.487H4.72178C4.22604 17.487 3.73515 17.3894 3.27715 17.1997C2.81914 17.0099 2.40299 16.7319 2.05245 16.3813C1.70191 16.0308 1.42384 15.6146 1.23413 15.1566C1.04442 14.6986 0.946777 14.2078 0.946777 13.712C0.946777 13.2163 1.04442 12.7254 1.23413 12.2674C1.42384 11.8094 1.70191 11.3932 2.05245 11.0427C2.40299 10.6921 2.81914 10.4141 3.27715 10.2244C3.73515 10.0347 4.22604 9.93701 4.72178 9.93701H15.9998ZM3.78978 11.825C3.54145 11.8245 3.29545 11.8729 3.06582 11.9674C2.83619 12.062 2.62743 12.2008 2.45147 12.376C2.2755 12.5513 2.13577 12.7594 2.04025 12.9887C1.94473 13.2179 1.8953 13.4637 1.89478 13.712C1.89504 13.9604 1.94425 14.2063 2.0396 14.4356C2.13495 14.6649 2.27457 14.8732 2.45047 15.0486C2.62637 15.2239 2.8351 15.3629 3.06474 15.4575C3.29438 15.5521 3.54041 15.6005 3.78878 15.6C4.03719 15.6005 4.28327 15.5521 4.51297 15.4575C4.74266 15.3629 4.95146 15.224 5.12744 15.0486C5.30342 14.8733 5.44313 14.665 5.53859 14.4357C5.63405 14.2063 5.68338 13.9604 5.68378 13.712C5.68325 13.4637 5.63382 13.2179 5.5383 12.9887C5.44279 12.7594 5.30306 12.5513 5.12709 12.376C4.95112 12.2008 4.74236 12.062 4.51274 11.9674C4.28311 11.8729 4.03811 11.8245 3.78978 11.825Z" fill="#1A47FF"/>
<path opacity="0.803" fill-rule="evenodd" clip-rule="evenodd" d="M11.9539 3.12021L14.4789 5.63521C14.8545 6.0096 15.0661 6.51785 15.067 7.04818C15.068 7.5785 14.8582 8.08749 14.4839 8.46321L14.4789 8.46921L6.52294 16.3942C5.81126 17.1033 4.84757 17.5015 3.84294 17.5015C2.8383 17.5015 1.87461 17.1033 1.16294 16.3942C0.811661 16.0441 0.532941 15.6282 0.342762 15.1702C0.152584 14.7122 0.0546875 14.2211 0.0546875 13.7252C0.0546875 13.2293 0.152584 12.7382 0.342762 12.2802C0.532941 11.8222 0.811661 11.4063 1.16294 11.0562L9.13094 3.11921C9.50579 2.7458 10.0133 2.53613 10.5424 2.53613C11.0715 2.53613 11.5791 2.7468 11.9539 3.12021ZM3.78894 11.8252C3.28759 11.8244 2.80644 12.0227 2.45127 12.3766C2.09611 12.7304 1.896 13.2109 1.89494 13.7122C1.8952 13.9606 1.94441 14.2065 2.03976 14.4358C2.13511 14.6651 2.27473 14.8734 2.45063 15.0488C2.62653 15.2241 2.83526 15.3631 3.0649 15.4577C3.29454 15.5523 3.54057 15.6007 3.78894 15.6002C4.03735 15.6007 4.28344 15.5523 4.51313 15.4577C4.74282 15.3631 4.95162 15.2242 5.1276 15.0488C5.30358 14.8735 5.44329 14.6652 5.53875 14.4359C5.63421 14.2065 5.68355 13.9606 5.68394 13.7122C5.68341 13.4639 5.63398 13.2181 5.53847 12.9889C5.44295 12.7596 5.30322 12.5515 5.12725 12.3762C4.95128 12.201 4.74253 12.0622 4.5129 11.9676C4.28327 11.8731 4.03727 11.8247 3.78894 11.8252Z" fill="#1A47FF"/>
<path fill-rule="evenodd" clip-rule="evenodd" d="M5.57901 0.5C6.10945 0.5 6.61815 0.710714 6.99323 1.08579C7.3683 1.46086 7.57901 1.96957 7.57901 2.5V13.698C7.58718 14.2008 7.4952 14.7002 7.30842 15.1672C7.12165 15.6341 6.84382 16.0592 6.49112 16.4176C6.13843 16.7761 5.71791 17.0608 5.25409 17.2551C4.79026 17.4495 4.2924 17.5496 3.78951 17.5496C3.28662 17.5496 2.78876 17.4495 2.32493 17.2551C1.86111 17.0608 1.4406 16.7761 1.0879 16.4176C0.735202 16.0592 0.457372 15.6341 0.270599 15.1672C0.0838256 14.7002 -0.00815669 14.2008 1.17561e-05 13.698V2.5C1.17561e-05 1.96957 0.210725 1.46086 0.585798 1.08579C0.960871 0.710714 1.46958 0.5 2.00001 0.5H5.57901ZM3.78901 11.825C3.28766 11.8242 2.80651 12.0225 2.45135 12.3764C2.09618 12.7302 1.89607 13.2106 1.89501 13.712C1.89527 13.9604 1.94449 14.2062 2.03984 14.4356C2.13518 14.6649 2.2748 14.8732 2.4507 15.0486C2.6266 15.2239 2.83534 15.3629 3.06497 15.4575C3.29461 15.5521 3.54065 15.6005 3.78901 15.6C4.03743 15.6005 4.28351 15.5521 4.5132 15.4575C4.7429 15.3629 4.9517 15.2239 5.12768 15.0486C5.30366 14.8733 5.44337 14.665 5.53883 14.4357C5.63428 14.2063 5.68362 13.9604 5.68401 13.712C5.68349 13.4637 5.63406 13.2179 5.53854 12.9886C5.44302 12.7594 5.30329 12.5513 5.12732 12.376C4.95136 12.2008 4.7426 12.062 4.51297 11.9674C4.28334 11.8729 4.03734 11.8245 3.78901 11.825Z" fill="#1F2024"/>
</g>
<defs>
<clipPath id="clip0_7_800">
<rect width="18" height="18" fill="white"/>
</clipPath>
</defs>
</svg>
